<svg width="46" height="42" viewBox="0 0 46 42" fill="none" xmlns="http://www.w3.org/2000/svg">
<path d="M40.4995 15.25V4.50005C40.4995 3.12505 39.3745 2.00005 37.9995 2.00005H35.4995C34.1245 2.00005 32.9995 3.12505 32.9995 4.50005V8.50005L24.6745 1.00005C23.7245 0.150049 22.2745 0.150049 21.3245 1.00005L0.424513 19.8251C-0.425487 20.5751 0.0995126 22 1.24951 22H5.49951V39.5C5.49951 40.875 6.62451 42 7.99951 42H15.4995C16.8745 42 17.9995 40.875 17.9995 39.5V27H27.9995V39.5C27.9995 40.875 29.1245 42 30.4995 42H37.9995C39.3745 42 40.4995 40.875 40.4995 39.5V22H44.7495C45.8995 22 46.4495 20.5751 45.5745 19.8251L40.4995 15.25ZM17.9995 17C17.9995 14.25 20.2495 12 22.9995 12C25.7495 12 27.9995 14.25 27.9995 17H17.9995Z" fill="white"/>
</svg>
