<svg width="96" height="65" viewBox="0 0 96 65" fill="none" xmlns="http://www.w3.org/2000/svg">
<path d="M78.4586 64.7149C75.516 64.7149 73.26 63.4712 71.6907 60.984C70.1213 58.4928 70.0232 55.9294 71.3964 53.2938L77.4287 41.2869H65.6584C62.4216 41.2869 59.6516 40.139 57.3486 37.843C55.0416 35.551 53.8881 32.7943 53.8881 29.573V12.002C53.8881 8.78071 55.0416 6.02402 57.3486 3.73199C59.6516 1.43605 62.4216 0.288086 65.6584 0.288086H83.3138C86.5506 0.288086 89.3225 1.43605 91.6295 3.73199C93.9325 6.02402 95.0841 8.78071 95.0841 12.002V38.5049C95.0841 39.3834 95.0095 40.2873 94.8604 41.2167C94.7153 42.1421 94.3975 42.9952 93.907 43.7762L85.5207 60.3221C84.8341 61.6888 83.8533 62.7625 82.5782 63.5435C81.303 64.3244 79.9298 64.7149 78.4586 64.7149ZM25.4923 64.7149C22.5498 64.7149 20.2938 63.4712 18.7244 60.984C17.155 58.4928 17.057 55.9294 18.4302 53.2938L24.4624 41.2869H12.6922C9.45532 41.2869 6.68539 40.139 4.38233 37.843C2.07536 35.551 0.921875 32.7943 0.921875 29.573V12.002C0.921875 8.78071 2.07536 6.02402 4.38233 3.73199C6.68539 1.43605 9.45532 0.288086 12.6922 0.288086H30.3476C33.5844 0.288086 36.3563 1.43605 38.6633 3.73199C40.9663 6.02402 42.1178 8.78071 42.1178 12.002V38.5049C42.1178 39.3834 42.0453 40.2873 41.9001 41.2167C41.751 42.1421 41.4312 42.9952 40.9408 43.7762L32.5545 60.3221C31.8679 61.6888 30.887 62.7625 29.6119 63.5435C28.3368 64.3244 26.9636 64.7149 25.4923 64.7149Z" fill="white"/>
</svg>
