<svg width="28" height="20" viewBox="0 0 28 20" fill="none" xmlns="http://www.w3.org/2000/svg">
<path d="M16.423 18.6605C16.0805 18.3167 15.9162 17.9013 15.9299 17.4142C15.9447 16.9272 16.1233 16.5118 16.4658 16.168L21.3026 11.3118H2.21215C1.72704 11.3118 1.32012 11.1468 0.991386 10.8168C0.663796 10.4879 0.5 10.0799 0.5 9.59285C0.5 9.10581 0.663796 8.69726 0.991386 8.36722C1.32012 8.03832 1.72704 7.87387 2.21215 7.87387H21.3026L16.423 2.97477C16.0805 2.63097 15.9093 2.22243 15.9093 1.74913C15.9093 1.27698 16.0805 0.869013 16.423 0.525216C16.7654 0.181419 17.1723 0.00952148 17.6437 0.00952148C18.114 0.00952148 18.5203 0.181419 18.8628 0.525216L26.6958 8.38957C26.867 8.56146 26.9886 8.74769 27.0605 8.94823C27.1313 9.14878 27.1667 9.36366 27.1667 9.59285C27.1667 9.82205 27.1313 10.0369 27.0605 10.2375C26.9886 10.438 26.867 10.6242 26.6958 10.7961L18.82 18.7035C18.5061 19.0186 18.114 19.1762 17.6437 19.1762C17.1723 19.1762 16.7654 19.0043 16.423 18.6605Z" fill="#FBFAF4"/>
</svg>
