<svg width="4516" height="1024" viewBox="0 0 4516 1024" fill="none" xmlns="http://www.w3.org/2000/svg">
<g clip-path="url(#clip0_20_1104)">
<path d="M1543.1 613.2H1644.75C1639.68 645.5 1627.02 674.317 1606.75 699.65C1587.12 724.35 1560.2 743.983 1526 758.55C1491.8 772.483 1450.95 779.45 1403.45 779.45C1349.62 779.45 1301.48 769.633 1259.05 750C1216.62 729.733 1183.37 701.233 1159.3 664.5C1135.23 627.767 1123.2 584.067 1123.2 533.4C1123.2 483.367 1134.92 439.667 1158.35 402.3C1181.78 364.933 1214.08 336.117 1255.25 315.85C1297.05 295.583 1345.18 285.45 1399.65 285.45C1456.02 285.45 1502.88 295.583 1540.25 315.85C1578.25 335.483 1606.43 365.25 1624.8 405.15C1643.17 444.417 1650.77 494.133 1647.6 554.3H1230.55C1233.72 580.9 1242.27 604.967 1256.2 626.5C1270.77 647.4 1290.4 663.867 1315.1 675.9C1339.8 687.3 1368.62 693 1401.55 693C1438.28 693 1469 685.717 1493.7 671.15C1519.03 656.583 1535.5 637.267 1543.1 613.2ZM1396.8 370.95C1353.73 370.95 1318.27 381.717 1290.4 403.25C1262.53 424.15 1244.48 451.067 1236.25 484H1541.2C1538.67 448.533 1524.42 420.983 1498.45 401.35C1472.48 381.083 1438.6 370.95 1396.8 370.95ZM1703.65 105.9H1809.1V769H1703.65V105.9ZM2177.7 295.9L1912.65 539.1L1915.5 472.6L2197.65 769H2062.75L1811.95 503.95L2031.4 295.9H2177.7ZM2183.96 295.9H2518.36V382.35H2183.96V295.9ZM2297.96 168.6H2404.36V769H2297.96V168.6ZM2941.57 613.2H3043.22C3038.15 645.5 3025.48 674.317 3005.22 699.65C2985.58 724.35 2958.67 743.983 2924.47 758.55C2890.27 772.483 2849.42 779.45 2801.92 779.45C2748.08 779.45 2699.95 769.633 2657.52 750C2615.08 729.733 2581.83 701.233 2557.77 664.5C2533.7 627.767 2521.67 584.067 2521.67 533.4C2521.67 483.367 2533.38 439.667 2556.82 402.3C2580.25 364.933 2612.55 336.117 2653.72 315.85C2695.52 295.583 2743.65 285.45 2798.12 285.45C2854.48 285.45 2901.35 295.583 2938.72 315.85C2976.72 335.483 3004.9 365.25 3023.27 405.15C3041.63 444.417 3049.23 494.133 3046.07 554.3H2629.02C2632.18 580.9 2640.73 604.967 2654.67 626.5C2669.23 647.4 2688.87 663.867 2713.57 675.9C2738.27 687.3 2767.08 693 2800.02 693C2836.75 693 2867.47 685.717 2892.17 671.15C2917.5 656.583 2933.97 637.267 2941.57 613.2ZM2795.27 370.95C2752.2 370.95 2716.73 381.717 2688.87 403.25C2661 424.15 2642.95 451.067 2634.72 484H2939.67C2937.13 448.533 2922.88 420.983 2896.92 401.35C2870.95 381.083 2837.07 370.95 2795.27 370.95ZM3273.56 105.9H3379.01V769H3273.56V105.9ZM3416.88 295.9H3529.93L3720.88 750L3629.68 769L3416.88 295.9ZM3944.13 295.9L3640.13 959H3528.98L3659.13 699.65L3831.08 295.9H3944.13ZM4164.83 779.45C4121.13 779.45 4081.23 769 4045.13 748.1C4009.66 727.2 3981.48 698.383 3960.58 661.65C3939.68 624.283 3929.23 581.533 3929.23 533.4C3929.23 484 3939.36 440.933 3959.63 404.2C3980.53 366.833 4008.39 337.7 4043.23 316.8C4078.69 295.9 4119.23 285.45 4164.83 285.45C4204.73 285.45 4238.29 292.1 4265.53 305.4C4292.76 318.067 4314.29 335.8 4330.13 358.6C4345.96 380.767 4357.36 406.733 4364.33 436.5C4371.93 466.267 4375.73 498.567 4375.73 533.4C4375.73 559.367 4371.93 586.917 4364.33 616.05C4356.73 644.55 4344.69 671.15 4328.23 695.85C4312.39 720.55 4290.86 740.817 4263.63 756.65C4237.03 771.85 4204.09 779.45 4164.83 779.45ZM4197.13 692.05C4232.59 692.05 4262.68 685.4 4287.38 672.1C4312.71 658.167 4331.71 639.167 4344.38 615.1C4357.68 591.033 4364.33 563.8 4364.33 533.4C4364.33 499.833 4357.68 471.333 4344.38 447.9C4331.08 423.833 4312.08 405.15 4287.38 391.85C4262.68 378.55 4232.59 371.9 4197.13 371.9C4146.46 371.9 4107.19 387.1 4079.33 417.5C4051.46 447.267 4037.53 485.9 4037.53 533.4C4037.53 564.433 4044.18 591.983 4057.48 616.05C4071.41 640.117 4090.41 658.8 4114.48 672.1C4138.54 685.4 4166.09 692.05 4197.13 692.05ZM4364.33 105.9H4470.73V769H4371.93C4370.66 754.433 4369.08 736.383 4367.18 714.85C4365.28 693.317 4364.33 674 4364.33 656.9V105.9Z" fill="#FBFAF4"/>
<path d="M1011.34 512.02C1011.34 787.9 787.743 1011.54 511.922 1011.54C236.101 1011.54 12.5 787.9 12.5 512.02C12.5 236.141 236.101 12.5 511.922 12.5C787.743 12.5 1011.34 236.141 1011.34 512.02Z" fill="#234E70" stroke="#FBFAF4" stroke-width="25"/>
<rect x="259" y="212.04" width="35" height="177" fill="#FBFAF4"/>
<rect x="259" y="477.04" width="35" height="335" fill="#FBFAF4"/>
<rect x="197" y="442.04" width="160" height="35" fill="#FBFAF4"/>
<rect x="197" y="389.04" width="160" height="35" fill="#FBFAF4"/>
<rect x="495" y="212.04" width="35" height="274" fill="#FBFAF4"/>
<rect x="495" y="547.04" width="35" height="265" fill="#FBFAF4"/>
<rect x="433" y="539.04" width="160" height="35" fill="#FBFAF4"/>
<rect x="433" y="486.04" width="160" height="35" fill="#FBFAF4"/>
<rect x="731" y="212.04" width="35" height="117" fill="#FBFAF4"/>
<rect x="731" y="389.04" width="35" height="423" fill="#FBFAF4"/>
<rect x="668" y="382.04" width="160" height="35" fill="#FBFAF4"/>
<rect x="668" y="329.04" width="160" height="35" fill="#FBFAF4"/>
</g>
<defs>
<clipPath id="clip0_20_1104">
<rect width="4516" height="1024" fill="white"/>
</clipPath>
</defs>
</svg>
